<svg xmlns="http://www.w3.org/2000/svg" width="449.573" height="449.573" viewBox="0 0 449.573 449.573">
  <title>icon 3.2</title>
  <g>
    <circle cx="224.786" cy="224.786" r="224.786" fill="#97daf8" opacity="0.75"/>
    <path d="M247.549,140.937a31.92,31.92,0,0,1,31.883,31.884V305.115A31.92,31.92,0,0,1,247.549,337h-76.59a31.92,31.92,0,0,1-31.883-31.883V172.821a31.946,31.946,0,0,1,31.782-31.884h76.691m0-9H170.858a41,41,0,0,0-40.782,40.884V305.115A41,41,0,0,0,170.959,346h76.59a41,41,0,0,0,40.883-40.883V172.821a41,41,0,0,0-40.883-40.884Z" fill="#fff"/>
    <path d="M288.016,100.945A22.507,22.507,0,0,1,310.5,123.427v141.7a31.952,31.952,0,0,1-22.815,30.57V173.169A40.527,40.527,0,0,0,247.2,132.688H170.107v-9.261a22.508,22.508,0,0,1,22.482-22.482h95.427m0-9H192.589a31.575,31.575,0,0,0-31.482,31.482v18.261H247.2a31.574,31.574,0,0,1,31.482,31.481V306.007A41.013,41.013,0,0,0,319.5,265.123v-141.7a31.574,31.574,0,0,0-31.481-31.482Z" fill="#fff"/>
  </g>
</svg>
