<svg xmlns="http://www.w3.org/2000/svg" xmlns:xlink="http://www.w3.org/1999/xlink" width="446.024" height="446.024" viewBox="0 0 446.024 446.024">
  <defs>
    <linearGradient id="a" x1="-47.51" y1="303.582" x2="504.545" y2="139.163" gradientUnits="userSpaceOnUse">
      <stop offset="0" stop-color="#88bee7"/>
      <stop offset="1" stop-color="#0098d7"/>
    </linearGradient>
  </defs>
  <title>icon 3</title>
  <g>
    <circle cx="223.012" cy="223.012" r="223.012" fill="url(#a)"/>
    <path d="M245.774,144.977a31.92,31.92,0,0,1,31.884,31.884V309.155a31.92,31.92,0,0,1-31.884,31.883H169.185A31.92,31.92,0,0,1,137.3,309.155V176.861a31.947,31.947,0,0,1,31.783-31.884h76.69m0-9h-76.69A41.005,41.005,0,0,0,128.3,176.861V309.155a41,41,0,0,0,40.884,40.883h76.589a41,41,0,0,0,40.884-40.883V176.861a41,41,0,0,0-40.884-40.884Z" fill="#fff"/>
    <path d="M286.241,104.986a22.507,22.507,0,0,1,22.482,22.481v141.7a31.951,31.951,0,0,1-22.816,30.57V177.21a40.528,40.528,0,0,0-40.482-40.482H168.333v-9.261a22.507,22.507,0,0,1,22.482-22.481h95.426m0-9H190.815a31.574,31.574,0,0,0-31.482,31.481v18.261h86.092a31.575,31.575,0,0,1,31.482,31.482V310.047a41.013,41.013,0,0,0,40.816-40.884v-141.7a31.574,31.574,0,0,0-31.482-31.481Z" fill="#fff"/>
  </g>
</svg>
