<svg xmlns="http://www.w3.org/2000/svg" xmlns:xlink="http://www.w3.org/1999/xlink" width="446.024" height="446.024" viewBox="0 0 446.024 446.024">
  <defs>
    <linearGradient id="a" x1="-47.51" y1="303.582" x2="504.545" y2="139.163" gradientUnits="userSpaceOnUse">
      <stop offset="0" stop-color="#88bee7"/>
      <stop offset="1" stop-color="#0098d7"/>
    </linearGradient>
  </defs>
  <title>icon 4</title>
  <g>
    <circle cx="223.012" cy="223.012" r="223.012" fill="url(#a)"/>
    <g>
      <path d="M259.993,164.9l21.136,21.135L169.052,298.107l-21.135-21.135L259.993,164.9m0-11.314L136.6,276.972l32.449,32.449,123.39-123.39-32.449-32.449Z" fill="#fff"/>
      <path d="M314.842,105.978v8a17.427,17.427,0,0,1,11.821,5.384c5.728,5.728,7.125,14.009,3.051,18.083l-15.425,15.424-21.135-21.135,15.424-15.425a8.732,8.732,0,0,1,6.263-2.331v-8m0,0a16.558,16.558,0,0,0-11.919,4.675L281.84,131.734l32.449,32.449L335.37,143.1c7.276-7.276,5.911-20.436-3.05-29.4a25.216,25.216,0,0,0-17.48-7.727Z" fill="#fff"/>
      <path d="M285.625,135.046,310.977,160.4l-22.3,22.3-25.352-25.352,4.319-4.319,14.038-14.038,3.94-3.94m0-11.314-9.6,9.6L261.99,147.367l-9.976,9.976,36.666,36.666L322.291,160.4l-36.666-36.666Z" fill="#fff"/>
      <path d="M142.75,286.305l16.969,16.969-35.11,18.141,18.141-35.11m-2.083-13.4-34.689,67.138,67.138-34.689-32.449-32.449Z" fill="#fff"/>
      <g>
        <path d="M127.284,311.4a23.668,23.668,0,0,1,7.344,7.343l-17.575,10.23Z" fill="#fff"/>
        <path d="M128.427,317.383l.109.108.1.106-.511.3.3-.511m-2.615-11.408-19.834,34.071,34.071-19.834a29.307,29.307,0,0,0-14.237-14.237Z" fill="#fff"/>
      </g>
    </g>
  </g>
</svg>
