<svg xmlns="http://www.w3.org/2000/svg" width="449.573" height="449.573" viewBox="0 0 449.573 449.573">
  <title>icon 4.2</title>
  <g>
    <circle cx="224.786" cy="224.786" r="224.786" fill="#97daf8" opacity="0.75"/>
    <g>
      <path d="M270.257,158.181l21.135,21.135L179.316,291.392l-21.135-21.135L270.257,158.181m0-11.314-123.39,123.39,32.449,32.449,123.39-123.39-32.449-32.449Z" fill="#fff"/>
      <path d="M325.106,99.263v8a17.429,17.429,0,0,1,11.821,5.384c5.728,5.728,7.125,14.009,3.05,18.084l-15.424,15.424-21.136-21.136L318.841,109.6a8.731,8.731,0,0,1,6.264-2.332v-8m0,0a16.556,16.556,0,0,0-11.919,4.675L292.1,125.019l32.449,32.449,21.081-21.081c7.276-7.275,5.91-20.436-3.05-29.4a25.225,25.225,0,0,0-17.48-7.727Z" fill="#fff"/>
      <path d="M295.888,128.331l25.353,25.353-22.3,22.3-25.352-25.352,4.318-4.318,14.039-14.039,3.939-3.94m0-11.313-9.6,9.6-14.039,14.039-9.975,9.975,36.666,36.666,33.611-33.61-36.667-36.666Z" fill="#fff"/>
      <path d="M153.014,279.59l16.969,16.969L134.873,314.7l18.141-35.11m-2.083-13.4-34.689,67.139,67.137-34.69-32.448-32.449Z" fill="#fff"/>
      <g>
        <path d="M137.547,304.682a23.668,23.668,0,0,1,7.344,7.343l-17.574,10.231Z" fill="#fff"/>
        <path d="M138.691,310.668l.108.108c.036.035.071.07.106.106l-.512.3.3-.512m-2.616-11.408-19.833,34.072L150.313,313.5a29.311,29.311,0,0,0-14.238-14.238Z" fill="#fff"/>
      </g>
    </g>
  </g>
</svg>
