<svg xmlns="http://www.w3.org/2000/svg" width="629.002" height="288.119" viewBox="0 0 629.002 288.119">
  <title>logo</title>
  <g>
    <circle cx="541.422" cy="87.579" r="87.579" fill="#0098d7"/>
    <path d="M174.044,168.514h34.437V141.936H168.612a53.158,53.158,0,0,0-53.157,53.158v53.158h26.579V201.738a33.217,33.217,0,0,1,32.01-33.193Z" fill="#3b3b3c"/>
    <polygon points="422.696 141.935 389.472 141.935 389.472 102.067 362.894 102.067 362.894 141.935 329.67 141.935 329.67 168.514 362.894 168.514 362.894 248.251 389.472 248.251 389.472 168.514 422.696 168.514 422.696 141.935" fill="#3b3b3c"/>
    <path d="M53.158,141.935A53.158,53.158,0,0,0,0,195.093v93.026H26.579v-47a53.155,53.155,0,1,0,26.579-99.186Zm0,81.433a28.275,28.275,0,1,1,28.275-28.275A28.276,28.276,0,0,1,53.158,223.368Z" fill="#3b3b3c"/>
    <path d="M482.118,141.935a53.158,53.158,0,1,0,53.158,53.158A53.158,53.158,0,0,0,482.118,141.935Zm0,81.433a28.275,28.275,0,1,1,28.276-28.275A28.275,28.275,0,0,1,482.118,223.368Z" fill="#3b3b3c"/>
    <path d="M270.248,141.935A53.158,53.158,0,1,0,323.4,195.093,53.158,53.158,0,0,0,270.248,141.935Zm0,81.433a28.275,28.275,0,1,1,28.275-28.275A28.276,28.276,0,0,1,270.248,223.368Z" fill="#3b3b3c"/>
  </g>
</svg>
