<svg xmlns="http://www.w3.org/2000/svg" xmlns:xlink="http://www.w3.org/1999/xlink" width="446.024" height="446.024" viewBox="0 0 446.024 446.024">
  <defs>
    <linearGradient id="a" x1="-47.51" y1="303.582" x2="504.545" y2="139.163" gradientUnits="userSpaceOnUse">
      <stop offset="0" stop-color="#88bee7"/>
      <stop offset="1" stop-color="#0098d7"/>
    </linearGradient>
  </defs>
  <title>icon 1</title>
  <g>
    <circle cx="223.012" cy="223.012" r="223.012" fill="url(#a)"/>
    <path d="M298.263,101.935a46.1,46.1,0,0,1,12.234,1.651l-28.16,28.16a22.586,22.586,0,0,0,31.942,31.942l28.16-28.161a45.774,45.774,0,0,1-59.127,55.429l-92.356,92.356a45.776,45.776,0,0,1-55.428,59.127l28.16-28.16a22.586,22.586,0,1,0-31.942-31.942l-28.16,28.16a45.773,45.773,0,0,1,59.126-55.429l92.355-92.356a45.725,45.725,0,0,1,43.2-60.777m0-8a53.7,53.7,0,0,0-52.476,42.159,54.045,54.045,0,0,0,.274,24.31L160.4,246.062a54,54,0,0,0-12.759-1.523,53.351,53.351,0,0,0-37.978,15.719,53.939,53.939,0,0,0-13.8,52.362l3.648,13.256,9.722-9.722,28.161-28.16a14.586,14.586,0,0,1,20.628,20.628l-28.16,28.16-9.723,9.723,13.258,3.647a54.08,54.08,0,0,0,14.354,1.937,53.705,53.705,0,0,0,52.477-42.159,54.031,54.031,0,0,0-.275-24.31l85.657-85.658a54.012,54.012,0,0,0,12.76,1.523,53.358,53.358,0,0,0,37.978-15.719,53.942,53.942,0,0,0,13.8-52.361l-3.648-13.257-9.723,9.723-28.16,28.16A14.586,14.586,0,1,1,287.994,137.4l28.16-28.16,9.722-9.723L312.62,95.872a54.149,54.149,0,0,0-14.357-1.937Z" fill="#fff"/>
  </g>
</svg>
