<svg xmlns="http://www.w3.org/2000/svg" width="449.573" height="449.573" viewBox="0 0 449.573 449.573">
  <title>icon 1.2</title>
  <g>
    <circle cx="224.786" cy="224.786" r="224.786" fill="#97daf8" opacity="0.75"/>
    <path d="M300.038,103.709a46.136,46.136,0,0,1,12.234,1.651l-28.161,28.161a22.586,22.586,0,0,0,31.942,31.941l28.16-28.16a45.771,45.771,0,0,1-59.126,55.428L192.73,285.086A45.774,45.774,0,0,1,137.3,344.213l28.16-28.16a22.586,22.586,0,0,0-31.941-31.942L105.36,312.272a45.775,45.775,0,0,1,59.126-55.43l92.356-92.355a45.725,45.725,0,0,1,43.2-60.778m0-8a53.7,53.7,0,0,0-52.477,42.159,54.049,54.049,0,0,0,.275,24.311l-85.658,85.657a53.986,53.986,0,0,0-12.757-1.522,53.347,53.347,0,0,0-37.979,15.719,53.932,53.932,0,0,0-13.795,52.361l3.648,13.257,9.722-9.722,28.16-28.161A14.587,14.587,0,0,1,159.806,310.4l-28.161,28.161-9.723,9.722,13.258,3.648a54.132,54.132,0,0,0,14.354,1.937,53.705,53.705,0,0,0,52.477-42.159,54.035,54.035,0,0,0-.275-24.311l85.658-85.658a54.007,54.007,0,0,0,12.76,1.524,53.351,53.351,0,0,0,37.977-15.72,53.938,53.938,0,0,0,13.8-52.36l-3.648-13.258-9.722,9.723L310.4,159.805a14.586,14.586,0,1,1-20.628-20.627l28.161-28.161,9.722-9.722-13.257-3.648a54.107,54.107,0,0,0-14.356-1.938Z" fill="#fff"/>
  </g>
</svg>
